<?xml version="1.0" encoding="UTF-8" standalone="no"?>
<svg width="100px" height="63px" viewBox="0 0 100 63" version="1.1" xmlns="http://www.w3.org/2000/svg" xmlns:xlink="http://www.w3.org/1999/xlink" xmlns:sketch="http://www.bohemiancoding.com/sketch/ns">
    <!-- Generator: Sketch 3.3.3 (12072) - http://www.bohemiancoding.com/sketch -->
    <title>left222</title>
    <desc>Created with Sketch.</desc>
    <defs></defs>
    <g id="Page-1" stroke="none" stroke-width="1" fill="none" fill-rule="evenodd" sketch:type="MSPage">
        <g id="left222" sketch:type="MSLayerGroup" fill="#FFFFFF">
            <path d="M95.4270799,26.852581 L14.7411658,26.852581 L33.9940021,7.59849794 C35.6806731,5.91282433 35.6806731,3.17834257 33.9940021,1.49291832 C32.307331,-0.19375272 29.5728493,-0.19375272 27.8886718,1.49291832 L1.26500328,28.1170856 C-0.421667761,29.8027592 -0.421667761,32.5374903 1.26500328,34.2226652 L27.8886718,60.8480793 C28.731758,61.6916642 29.8366722,62.1128332 30.941337,62.1128332 C32.0460018,62.1128332 33.1509159,61.6916642 33.9940021,60.8480793 C35.6806731,59.1624057 35.6806731,56.4279239 33.9940021,54.742749 L14.7411658,35.4876685 L95.4270799,35.4876685 C97.8114602,35.4876685 99.7449977,33.5543804 99.7449977,31.1700001 C99.7449977,28.7856198 97.8117096,26.852581 95.4270799,26.852581 L95.4270799,26.852581 Z" id="Shape" sketch:type="MSShapeGroup"></path>
        </g>
    </g>
</svg>